<?xml version="1.0" encoding="UTF-8"?><svg id="uuid-739ebac3-99b3-4d19-8005-2468bef89551" xmlns="http://www.w3.org/2000/svg" viewBox="0 0 512 512"><defs><style>.uuid-0ee10f0d-56f7-4693-a918-4331672d2018{fill:#d45a69;stroke-width:0px;}</style></defs><path class="uuid-0ee10f0d-56f7-4693-a918-4331672d2018" d="m256,21.73c-38.25,0-70.83,24.43-82.82,58.57h-34.32c-32.3,0-58.57,26.26-58.57,58.57v292.84c0,32.3,26.26,58.57,58.57,58.57h234.27c32.3,0,58.57-26.26,58.57-58.57V138.86c0-32.3-26.26-58.57-58.57-58.57h-34.32c-11.99-34.13-44.57-58.57-82.82-58.57Zm0,58.57c16.17,0,29.28,13.11,29.28,29.28s-13.11,29.28-29.28,29.28-29.28-13.11-29.28-29.28,13.11-29.28,29.28-29.28Zm103.41,191.26l-117.14,117.14c-8.6,8.6-22.51,8.6-31.02,0l-58.66-58.57c-8.6-8.6-8.6-22.51,0-31.02,8.6-8.51,22.51-8.6,31.02,0l43.01,43.01,101.67-101.67c8.6-8.6,22.51-8.6,31.02,0,8.51,8.6,8.6,22.51,0,31.02l.09.09Z"/></svg>