<?xml version="1.0" encoding="UTF-8"?><svg id="Calque_1" xmlns="http://www.w3.org/2000/svg" viewBox="0 0 1000 1000"><defs><style>.cls-1{fill:#0067a6;}.cls-1,.cls-2,.cls-3,.cls-4{stroke-width:0px;}.cls-2{fill:none;}.cls-3{fill:#f7931e;}.cls-4{fill:#2a9d8f;}</style></defs><polygon class="cls-2" points="388.22 696.19 611.57 696.19 499.97 502.89 388.22 696.19"/><path class="cls-4" d="m978.25,882.99l-107.85-186.81-240.93-417.3-129.5,224.01,111.6,193.29,129.41,224.14h215.72c19.16,0,31.14-20.74,21.56-37.34Z"/><path class="cls-3" d="m611.57,696.19H129.46l-107.71,186.56c-9.58,16.59,2.39,37.33,21.54,37.34l215.42.12c160.75.04,321.51.08,482.26.12l-129.41-224.14Z"/><path class="cls-1" d="m521.64,92.11c-9.58-16.59-33.52-16.6-43.11-.01l-107.94,186.71-241.13,417.38h258.76l111.75-193.29,129.5-224.01-107.83-186.77Z"/></svg>